# xmcd
#
# Track frame offsets: 
#        150
#        17164
#        31467
#        43785
#        60760
#        78095
#        93089
#        107199
#        128868
#        144615
#        163713
#
# Disc length: 2408 seconds
#
# Revision: 0
# Processed by: cddbd v1.5.2PL0 Copyright (c) Steve Scherf et al.
# Submitted via: ExactAudioCopy v0.95a3
#
DISCID=8509660b
DTITLE=Cancer Bats - Birthing the Giant
DYEAR=2006
DGENRE=Hardcore
TTITLE0=Golden Tanks
TTITLE1=French Immersion
TTITLE2=100 Grand Canyon
TTITLE3=Ghost Bust That
TTITLE4=Grenades
TTITLE5=Shillelagh
TTITLE6=Butterscotch
TTITLE7=Death Bros
TTITLE8=Firecrack This
TTITLE9=Diamond Mine
TTITLE10=Pneumonia Hawk
EXTD=
EXTT0=
EXTT1=
EXTT2=
EXTT3=
EXTT4=
EXTT5=
EXTT6=
EXTT7=
EXTT8=
EXTT9=
EXTT10=
PLAYORDER=
